<svg width="77" height="76" viewBox="0 0 77 76" fill="none" xmlns="http://www.w3.org/2000/svg">
<path d="M38.5 76C59.4868 76 76.5 58.9868 76.5 38C76.5 17.0132 59.4868 0 38.5 0C17.5132 0 0.5 17.0132 0.5 38C0.5 58.9868 17.5132 76 38.5 76Z" fill="#F8F6F7"/>
<path d="M33.3129 53C32.7414 53 32.2413 52.7775 31.8841 52.3641L20.8761 42.6813C20.2689 41.9819 20.4118 40.9963 21.1976 40.4558C21.9834 39.9154 23.0907 40.0426 23.6979 40.742L33.2414 48.7398L53.2796 24.641C53.8511 23.9415 54.994 23.7826 55.7799 24.3231C56.5657 24.8317 56.7443 25.8491 56.137 26.5485L34.7059 52.3324C34.4201 52.7457 33.8844 53 33.3129 53Z" fill="#318A1D"/>
</svg>
